<?xml version="1.0" encoding="utf-8"?>
<!-- Generator: Adobe Illustrator 19.0.0, SVG Export Plug-In . SVG Version: 6.00 Build 0)  -->
<svg version="1.1" id="Слой_1" xmlns="http://www.w3.org/2000/svg" xmlns:xlink="http://www.w3.org/1999/xlink" x="0px" y="0px"
	 viewBox="69 5 170 24" enable-background="new 69 5 170 24" xml:space="preserve">
<g>
	<path fill="#FFFFFF" d="M166.4,15.9c-0.7-0.4-1.5-0.5-2.2-0.7l0,0c-1.2-0.2-2.1-0.4-2.1-1.1c0-0.3,0.1-0.6,0.4-0.7
		c0.3-0.2,0.7-0.3,1.3-0.3c0.6,0,1,0.1,1.3,0.3c0.3,0.2,0.5,0.6,0.5,1.1l0,0.3h0.3h1.1h0.3l0-0.3c0-0.9-0.4-1.6-1-2.1
		c-0.6-0.5-1.5-0.7-2.5-0.7c-0.9,0-1.8,0.2-2.5,0.7c-0.6,0.4-0.9,1-0.9,1.9c0,1.8,1.5,2.1,3,2.4l0.3,0.1l0.1,0
		c1.2,0.3,2.2,0.5,2.2,1.2c0,0.4-0.2,0.7-0.4,0.8c-0.4,0.2-0.9,0.3-1.4,0.3c-0.7,0-1.3-0.1-1.7-0.4c-0.3-0.3-0.5-0.7-0.6-1.2l0-0.3
		h-0.3h-1.1h-0.3v0.3c0,1,0.4,1.8,1,2.3c0.7,0.5,1.7,0.8,2.8,0.8c1,0,1.9-0.2,2.6-0.7c0.6-0.4,1-1.1,1-2
		C167.6,16.9,167.1,16.3,166.4,15.9z"/>
	<path fill="#FFFFFF" d="M179.1,11.9c-1.2,0-2.2,0.4-2.9,1.2c-0.7,0.8-1.1,1.8-1.1,3.1c0,1.3,0.4,2.3,1.1,3c0.7,0.7,1.7,1.1,3,1.1
		c1,0,1.8-0.2,2.5-0.7c0.6-0.5,1.1-1.2,1.3-2.1l0.1-0.3h-0.3h-1.3h-0.2l0,0.1c-0.2,0.5-0.4,0.9-0.7,1.1c-0.3,0.2-0.7,0.3-1.3,0.3
		c-0.7,0-1.3-0.2-1.7-0.6c-0.4-0.4-0.6-0.9-0.6-1.6h5.9h0.2v-0.2v-0.2c0-1.2-0.3-2.4-1-3.2C181.4,12.4,180.4,11.9,179.1,11.9z
		 M177,15.2c0.1-0.5,0.3-1,0.7-1.3c0.4-0.4,0.9-0.6,1.5-0.6c0.6,0,1.1,0.2,1.5,0.5c0.3,0.3,0.5,0.8,0.6,1.3H177z"/>
	<path fill="#FFFFFF" d="M190.8,18.4l0-0.1c0-0.5-0.1-1-0.2-1.4c-0.1-0.2-0.3-0.5-0.6-0.6c0.2-0.1,0.4-0.3,0.5-0.5
		c0.3-0.4,0.5-0.9,0.5-1.4c0-1-0.4-1.6-1-2c-0.6-0.4-1.3-0.5-2.2-0.5H184h-0.3v0.3v8v0.3h0.3h1.1h0.3v-0.3V17h2
		c0.7,0,1.1,0.1,1.4,0.3c0.2,0.2,0.3,0.6,0.3,1.2c0,0.1,0,0.1,0,0.2c0,0.5,0,1.3,0.3,1.7l0.1,0.1h0.2h1.3h0.7l-0.5-0.5
		C190.8,19.6,190.8,19,190.8,18.4z M188.7,15.4c-0.4,0.2-0.9,0.2-1.4,0.2h-1.9v-2.2h2.2c0.5,0,0.9,0,1.2,0.2
		c0.3,0.1,0.4,0.4,0.4,0.9C189.2,14.9,189,15.2,188.7,15.4z"/>
	<polygon fill="#FFFFFF" points="167.8,11.9 167.5,11.9 167.5,12.1 167.5,13.1 167.5,13.3 167.8,13.3 170.4,13.3 170.4,20.1 
		170.4,20.4 170.7,20.4 171.8,20.4 172.1,20.4 172.1,20.1 172.1,13.3 174.7,13.3 175,13.3 175,13.1 175,12.1 175,11.9 174.7,11.9 	
		"/>
	<path fill="#FFFFFF" d="M198.1,13c-0.7-0.7-1.5-1-2.6-1c-0.5,0-1,0.1-1.4,0.3c-0.4,0.2-0.8,0.4-1.2,0.8c-0.3,0.3-0.6,0.7-0.7,1.2h0
		c-0.2,0.5-0.2,1-0.2,1.5v4.4v0.2h0.2h1.3h0.2v-0.2v-4.3c0-0.4,0-0.7,0.1-1c0.1-0.3,0.2-0.5,0.4-0.7c0.2-0.2,0.3-0.3,0.6-0.4
		c0.2-0.1,0.5-0.1,0.8-0.1c1.2,0,1.9,0.7,1.9,2.2v4.3v0.2h0.2h1.3l0.2-0.2v-4.4c0-0.6-0.1-1.1-0.2-1.5
		C198.7,13.7,198.5,13.3,198.1,13z"/>
	<path fill="#FFFFFF" d="M217,12c-1.2,0-2.2,0.4-2.9,1.2c-0.7,0.8-1.1,1.8-1.1,3.1c0,1.3,0.4,2.3,1.1,3c0.7,0.7,1.7,1.1,3,1.1
		c1,0,1.8-0.2,2.5-0.7c0.6-0.5,1.1-1.2,1.3-2.1l0.1-0.3h-0.3h-1.3h-0.2l-0.1,0.1c-0.2,0.5-0.4,0.9-0.7,1.1c-0.3,0.2-0.7,0.3-1.3,0.3
		c-0.7,0-1.3-0.2-1.7-0.6c-0.4-0.4-0.6-0.9-0.6-1.6h5.9h0.2v-0.2v-0.2c0-1.2-0.3-2.4-1-3.2C219.2,12.4,218.3,12,217,12z M214.8,15.3
		c0.1-0.5,0.3-1,0.7-1.3c0.4-0.4,0.9-0.6,1.5-0.6c0.6,0,1.1,0.2,1.5,0.5c0.3,0.3,0.5,0.8,0.6,1.3H214.8z"/>
	<path fill="#FFFFFF" d="M224.4,12h-2.8h-0.2v0.2v8v0.2h0.2h3c1.5,0,2.6-0.4,3.3-1.1c0.7-0.7,1-1.8,1-3.2c0-1.4-0.4-2.5-1.1-3.1
		C227,12.3,225.9,12,224.4,12z M226.7,18.4c-0.5,0.5-1.2,0.7-2.2,0.7H223v-5.8h1.5c1.1,0,1.8,0.2,2.3,0.7c0.4,0.5,0.6,1.2,0.6,2.2
		C227.3,17.2,227.1,17.9,226.7,18.4z"/>
	<polygon fill="#FFFFFF" points="230.3,12 230.1,12 230.1,12.2 230.1,20.2 230.1,20.4 230.3,20.4 231.5,20.4 231.7,20.4 231.7,20.2 
		231.7,12.2 231.7,12 231.5,12 	"/>
	<path fill="#FFFFFF" d="M238.5,14c-0.2-0.4-0.4-0.7-0.7-1c-0.3-0.3-0.7-0.5-1.1-0.7c-0.4-0.1-0.8-0.2-1.3-0.2s-0.9,0.1-1.3,0.2
		c-0.4,0.1-0.8,0.4-1.1,0.7c-0.3,0.3-0.5,0.6-0.7,1c-0.2,0.4-0.2,0.8-0.2,1.3v4.9v0.2h0.2h1.2h0.2v-0.2v-2.6h3.4v2.6v0.2h0.2h1.2
		h0.2v-0.2v-4.9C238.8,14.8,238.7,14.3,238.5,14z M237.1,16.2h-3.4v-0.8c0-0.3,0-0.6,0.1-0.8c0.1-0.2,0.2-0.4,0.3-0.6
		c0.1-0.2,0.3-0.3,0.5-0.3c0.2-0.1,0.5-0.1,0.7-0.1c0.6,0,1,0.2,1.3,0.5c0.3,0.3,0.4,0.8,0.4,1.4V16.2z"/>
	<polygon fill="#FFFFFF" points="149.9,13.3 149.9,7.3 146.6,11.9 143.4,7.3 143.4,13.3 146.6,16.5 	"/>
	<polygon fill="#FFFFFF" points="143.4,20.8 143.4,26.7 146.6,22.1 149.9,26.7 149.9,20.8 146.6,17.5 	"/>
	<polygon fill="#FFFFFF" points="142.9,13.8 137,13.8 141.5,17.1 137,20.2 142.9,20.2 146.1,17 	"/>
	<polygon fill="#FFFFFF" points="150.4,13.8 147.2,17 150.4,20.2 156.3,20.2 151.8,17.1 156.3,13.8 	"/>
	<path fill="#FFFFFF" d="M155.1,8.5c-1.1-1.1-2.4-2-3.9-2.6c-1.4-0.6-3-0.9-4.6-0.9s-3.2,0.3-4.6,0.9c-1.5,0.6-2.8,1.5-3.9,2.6
		c-1.1,1.1-2,2.4-2.6,3.9c-0.6,1.4-0.9,3-0.9,4.6s0.3,3.2,0.9,4.6c0.6,1.5,1.5,2.8,2.6,3.9c1.1,1.1,2.4,2,3.9,2.6
		c1.4,0.6,3,0.9,4.6,0.9s3.2-0.3,4.6-0.9c1.5-0.6,2.8-1.5,3.9-2.6s2-2.4,2.6-3.9c0.6-1.4,0.9-3,0.9-4.6s-0.3-3.2-0.9-4.6
		C157.1,10.9,156.2,9.6,155.1,8.5z M150.7,26.8c-1.2,0.5-2.6,0.8-4,0.8s-2.8-0.3-4.1-0.8c-1.3-0.5-2.5-1.3-3.4-2.3s-1.8-2.1-2.3-3.4
		c-0.5-1.2-0.8-2.6-0.8-4.1s0.3-2.8,0.8-4c0.5-1.3,1.3-2.5,2.3-3.4s2.1-1.8,3.4-2.3c1.2-0.5,2.6-0.8,4.1-0.8s2.8,0.3,4,0.8
		c1.3,0.5,2.5,1.3,3.4,2.3s1.8,2.1,2.3,3.4c0.5,1.2,0.8,2.6,0.8,4s-0.3,2.8-0.8,4.1c-0.5,1.3-1.3,2.5-2.3,3.4S152,26.3,150.7,26.8z"
		/>
	<path fill="#FFFFFF" d="M211.6,13.1c-0.3-0.3-0.7-0.6-1.1-0.7c-0.4-0.2-0.9-0.2-1.4-0.2c-0.5,0-1,0.1-1.4,0.2
		c-0.4,0.2-0.8,0.4-1.1,0.7c-0.1,0.1-0.1,0.1-0.2,0.2c-0.1-0.1-0.1-0.1-0.2-0.2c-0.3-0.3-0.7-0.6-1.1-0.7c-0.4-0.2-0.9-0.2-1.4-0.2
		c-0.5,0-1,0.1-1.4,0.2c-0.4,0.2-0.8,0.4-1.1,0.7c-0.3,0.3-0.6,0.7-0.7,1.2c-0.2,0.4-0.2,1-0.2,1.5v4.4v0.1h0.1h1.3h0.1v-0.1v-4.3
		c0-0.4,0-0.7,0.1-1c0.1-0.3,0.2-0.5,0.4-0.7c0.2-0.2,0.4-0.3,0.6-0.4c0.2-0.1,0.5-0.1,0.8-0.1c1.3,0,1.9,0.8,1.9,2.3v4.3v0.1h0h0.1
		h0h1.3h0h0.1h0v-0.1v-4.3c0-0.4,0-0.7,0.1-1c0.1-0.3,0.2-0.5,0.4-0.7c0.2-0.2,0.4-0.3,0.6-0.4c0.2-0.1,0.5-0.1,0.8-0.1
		c0.7,0,1.1,0.2,1.5,0.6c0.3,0.4,0.5,1,0.5,1.7v4.3v0.1h0.1h1.3h0.1v-0.1v-4.4c0-0.6-0.1-1.1-0.2-1.5
		C212.2,13.8,211.9,13.4,211.6,13.1z"/>
	<path fill="#FFFFFF" d="M72.8,11.7h-3.5v8.2H70v-3.5h2.7c1.6,0,2.6-0.8,2.6-2.4C75.3,12.5,74.3,11.7,72.8,11.7z M72.5,15.7H70v-3.4
		h2.6c1.2,0,2,0.5,2,1.7C74.6,15.3,73.7,15.7,72.5,15.7z"/>
	<path fill="#FFFFFF" d="M77.1,15.4V14h-0.7v5.9h0.7v-2.4c0-0.8,0-1.1,0.1-1.5c0.2-0.9,1-1.4,1.9-1.4c0,0,0.1,0,0.2,0v-0.7
		C78.2,13.9,77.6,14.3,77.1,15.4z"/>
	<path fill="#FFFFFF" d="M82.3,13.8c-1.7,0-2.8,1.2-2.8,3.1c0,1.9,1.1,3.1,2.8,3.1c1.7,0,2.8-1.2,2.8-3.1C85.1,15,84,13.8,82.3,13.8
		z M82.3,19.5c-1.3,0-2.1-1-2.1-2.5c0-1.5,0.8-2.5,2.1-2.5c1.3,0,2.1,1,2.1,2.5C84.3,18.5,83.6,19.5,82.3,19.5z"/>
	<path fill="#FFFFFF" d="M90.7,15.1c-0.4-0.9-1.2-1.3-2.1-1.3c-1.6,0-2.7,1.2-2.7,3.1c0,1.9,1,3.1,2.7,3.1c1,0,1.8-0.4,2.1-1.3v1.2
		h0.7v-8.2h-0.7V15.1z M88.7,19.5c-1.2,0-2-1-2-2.6c0-1.5,0.8-2.5,2-2.5c1.5,0,2.1,1.3,2.1,2.5C90.7,18.5,89.9,19.5,88.7,19.5z"/>
	<path fill="#FFFFFF" d="M96.9,17.2c0,1.2-0.7,2.2-1.9,2.2c-1.1,0-1.5-0.7-1.5-1.8V14h-0.7v3.9c0,1.4,0.8,2.2,2,2.2
		c1,0,1.7-0.4,2.1-1.3v1.1h0.7V14h-0.7V17.2z"/>
	<path fill="#FFFFFF" d="M101.4,19.5c-1.2,0-2-1-2-2.5c0-1.5,0.8-2.5,2-2.5c0.9,0,1.5,0.5,1.7,1.4h0.7c-0.2-1.3-1.1-2-2.4-2
		c-1.7,0-2.8,1.3-2.8,3.2c0,1.9,1.1,3.1,2.7,3.1c1.4,0,2.3-0.9,2.5-2.3h-0.7C103.1,18.8,102.4,19.5,101.4,19.5z"/>
	<path fill="#FFFFFF" d="M107.4,13.8c-1.6,0-2.7,1.3-2.7,3.2c0,1.9,1.1,3.1,2.7,3.1c1.4,0,2.3-0.8,2.5-2.1h-0.7
		c-0.2,1-0.9,1.6-1.8,1.6c-1.4,0-2-1.2-2-2.4h4.6v-0.2C110,15.3,109.1,13.8,107.4,13.8z M105.4,16.5c0.1-1.1,0.7-2.1,1.9-2.1
		c1.1,0,1.8,0.8,1.9,2.1H105.4z"/>
	<path fill="#FFFFFF" d="M115.5,15.1c-0.4-0.9-1.2-1.3-2.1-1.3c-1.6,0-2.7,1.2-2.7,3.1c0,1.9,1,3.1,2.7,3.1c1,0,1.8-0.4,2.1-1.3v1.2
		h0.7v-8.2h-0.7V15.1z M113.4,19.5c-1.2,0-2-1-2-2.6c0-1.5,0.8-2.5,2-2.5c1.4,0,2.1,1.3,2.1,2.5C115.5,18.5,114.7,19.5,113.4,19.5z"
		/>
	<path fill="#FFFFFF" d="M123.6,13.8c-1,0-1.8,0.5-2.1,1.3v-3.4h-0.7v8.2h0.7v-1.2c0.3,0.9,1.1,1.3,2.1,1.3c1.6,0,2.7-1.2,2.7-3.1
		C126.3,15,125.2,13.8,123.6,13.8z M123.5,19.5c-1.2,0-2-1-2-2.6c0-1.6,0.8-2.5,2-2.5c1.2,0,2,1,2,2.5
		C125.5,18.5,124.7,19.5,123.5,19.5z"/>
	<path fill="#FFFFFF" d="M129.8,18c-0.1,0.3-0.2,0.5-0.4,1.1c-0.2-0.7-0.1-0.5-0.4-1l-1.6-4.1h-0.8l2.4,5.9c-0.4,1-0.6,1.7-1.3,1.7
		c-0.2,0-0.2,0-0.5-0.1v0.6c0.2,0,0.4,0.1,0.6,0.1c1,0,1.2-0.6,1.8-2L132,14h-0.7L129.8,18z"/>
</g>
</svg>
